<svg xmlns="http://www.w3.org/2000/svg" fill="none" viewBox="0 0 168.56 249.1408934707904" style="max-height: 500px" width="168.56" height="249.1408934707904">
<g clip-path="url(#clip0_502_138)">
<path fill="#009F5C" d="M21.4493 188.275C52.2405 222.368 104.815 225.04 138.907 194.249C172.999 163.458 175.672 110.883 144.881 76.7913C114.09 42.6992 61.5152 40.0264 27.4231 70.8175C-6.66896 101.609 -9.3418 154.183 21.4493 188.275ZM44.0749 167.842C18.9369 140.017 21.1019 97.0648 48.9529 71.9134C76.7771 46.7753 119.73 48.9804 144.854 76.8047C169.992 104.629 167.827 147.581 140.003 172.72C112.152 197.871 69.213 195.666 44.0749 167.842Z" data-darkreader-inline-fill="" style="--darkreader-inline-fill: var(--darkreader-background-009f5c, #007f4a);"/>
<path fill="#03332F" d="M159.528 53.4969C159.14 54.566 158.579 56.29 157.43 57.9873C156.093 59.9652 154.249 61.5422 152.431 63.0924C141.9 72.0464 131.276 80.8668 121.159 90.2886C113.876 97.0776 106.753 104.04 99.8299 111.204C94.0699 117.164 88.0293 122.79 83.1247 129.513C70.8162 146.432 64.1208 167.774 66.1788 188.716C66.1922 188.89 66.2189 189.063 66.2323 189.237C68.0899 206.998 76.0283 223.556 89.927 235.477C97.6115 242.066 106.405 246.623 115.747 249.256C101.621 246.503 88.2432 240.302 76.8702 230.546C51.2644 208.589 41.3482 172.037 49.2197 139.696C53.2824 123.018 61.5014 107.622 71.7651 93.9504C95.0322 62.9588 122.496 34.2525 152.017 9.19457C155.692 6.08071 159.448 3.04704 163.176 0C162.521 24.9911 161.586 43.3134 161.025 47.4563C160.597 50.6102 159.555 53.5103 159.555 53.5103L159.528 53.4969Z" data-darkreader-inline-fill="" style="--darkreader-inline-fill: var(--darkreader-background-03332f, #022926);"/>
<path fill="#03332F" d="M142.208 126.799C141.967 127.454 141.62 128.537 140.898 129.606C140.056 130.835 138.907 131.824 137.771 132.786C131.196 138.386 124.554 143.892 118.233 149.772C113.675 154.009 109.238 158.365 104.908 162.829C101.313 166.544 97.5314 170.059 94.471 174.269C86.7866 184.84 82.6036 198.164 83.8865 211.248C83.8865 211.355 83.9133 211.461 83.9266 211.582C85.0893 222.674 90.0474 233.018 98.7208 240.462C103.519 244.578 109.011 247.424 114.851 249.068C106.031 247.344 97.6784 243.482 90.5686 237.388C74.5717 223.676 68.384 200.837 73.3021 180.644C75.8413 170.219 80.9731 160.611 87.3879 152.071C101.928 132.72 119.074 114.785 137.517 99.1353C139.816 97.1841 142.154 95.2998 144.48 93.3887C144.066 109.052 143.478 120.531 143.117 123.084C142.849 125.022 142.208 126.799 142.208 126.799Z" data-darkreader-inline-fill="" style="--darkreader-inline-fill: var(--darkreader-background-03332f, #022926);"/>
<mask height="74" width="73" y="152" x="32" maskUnits="userSpaceOnUse" style="mask-type:luminance" id="mask0_502_138">
<path fill="white" d="M104.16 184.614C102.022 180.217 95.1926 177.437 91.2769 174.684C88.3903 172.653 85.6506 170.448 82.7639 168.389C80.7192 166.933 77.8593 165.904 75.9749 164.367C74.438 163.124 73.6896 161.28 72.1795 160.09C65.5508 154.865 50.3424 150.094 41.9096 153.168C34.9869 155.693 35.3477 168.229 34.6795 174.056C33.5703 183.718 30.6034 195.332 34.3454 204.767C40.6667 220.697 60.6194 224.72 75.6007 224.84C81.628 224.893 87.9626 226.631 94.0032 225.735C101.166 224.666 99.8434 217.757 100.592 211.449C101.821 200.905 100.418 190.28 104.187 184.614C100.418 190.28 102.048 180.217 104.187 184.614H104.16Z" data-darkreader-inline-fill="" style="--darkreader-inline-fill: var(--darkreader-text-ffffff, #e8e6e3);"/>
</mask>
<g mask="url(#mask0_502_138)">
<path fill="#03332F" d="M159.528 53.4969C159.14 54.566 158.579 56.29 157.43 57.9873C156.093 59.9652 154.249 61.5422 152.431 63.0924C141.9 72.0464 131.276 80.8668 121.159 90.2886C113.876 97.0776 106.753 104.04 99.8299 111.204C94.0699 117.164 88.0293 122.79 83.1247 129.513C70.8162 146.432 64.1208 167.774 66.1788 188.716C66.1922 188.89 66.2189 189.063 66.2323 189.237C68.0899 206.998 76.0283 223.556 89.927 235.477C97.6115 242.066 106.405 246.623 115.747 249.256C101.621 246.503 88.2432 240.302 76.8702 230.546C51.2644 208.589 41.3482 172.037 49.2197 139.696C53.2824 123.018 61.5014 107.622 71.7651 93.9504C95.0322 62.9588 122.496 34.2525 152.017 9.19457C155.692 6.08071 159.448 3.04704 163.176 0C162.521 24.9911 161.586 43.3134 161.025 47.4563C160.597 50.6102 159.555 53.5103 159.555 53.5103L159.528 53.4969Z" data-darkreader-inline-fill="" style="--darkreader-inline-fill: var(--darkreader-background-03332f, #022926);"/>
<path fill="#03332F" d="M142.208 126.799C141.967 127.454 141.62 128.537 140.898 129.606C140.056 130.835 138.907 131.824 137.771 132.786C131.196 138.386 124.554 143.892 118.233 149.772C113.675 154.009 109.238 158.365 104.908 162.829C101.313 166.544 97.5314 170.059 94.471 174.269C86.7866 184.84 82.6036 198.164 83.8865 211.248C83.8865 211.355 83.9133 211.461 83.9266 211.582C85.0893 222.674 90.0474 233.018 98.7208 240.462C103.519 244.578 109.011 247.424 114.851 249.068C106.031 247.344 97.6784 243.482 90.5686 237.388C74.5717 223.676 68.384 200.837 73.3021 180.644C75.8413 170.219 80.9731 160.611 87.3879 152.071C101.928 132.72 119.074 114.785 137.517 99.1353C139.816 97.1841 142.154 95.2998 144.48 93.3887C144.066 109.052 143.478 120.531 143.117 123.084C142.849 125.022 142.208 126.799 142.208 126.799Z" data-darkreader-inline-fill="" style="--darkreader-inline-fill: var(--darkreader-background-03332f, #022926);"/>
<path fill="#009F5C" d="M21.4493 188.275C52.2405 222.368 104.815 225.04 138.907 194.249C172.999 163.458 175.672 110.883 144.881 76.7913C114.09 42.6992 61.5152 40.0264 27.4231 70.8175C-6.66896 101.609 -9.3418 154.183 21.4493 188.275ZM44.0749 167.842C18.9369 140.017 21.1019 97.0648 48.9529 71.9134C76.7771 46.7753 119.73 48.9804 144.854 76.8047C169.992 104.629 167.827 147.581 140.003 172.72C112.152 197.871 69.213 195.666 44.0749 167.842Z" data-darkreader-inline-fill="" style="--darkreader-inline-fill: var(--darkreader-background-009f5c, #007f4a);"/>
</g>
<path fill="#009F5C" d="M599.077 134.456C594.547 122.963 585.807 113.916 574.474 108.998C568.473 106.392 562.232 105.162 556.098 105.162C538.217 105.162 521.164 115.573 513.6 133C508.668 144.346 508.455 156.922 512.998 168.415C517.529 179.921 526.256 188.969 537.602 193.887C543.589 196.493 549.83 197.723 555.964 197.723C573.846 197.723 590.898 187.299 598.462 169.872C603.394 158.539 603.608 145.963 599.077 134.456ZM538.738 191.228C530.118 187.472 523.476 180.616 520.028 171.863C516.58 163.123 516.74 153.567 520.482 144.947C524.224 136.314 531.094 129.672 539.847 126.237C544.03 124.58 548.387 123.765 552.757 123.765C557.501 123.765 562.259 124.741 566.763 126.705C575.382 130.447 582.024 137.316 585.459 146.07C587.116 150.253 587.931 154.623 587.931 159.006C587.931 163.751 586.956 168.508 584.991 172.999C581.249 181.619 574.38 188.261 565.627 191.695C556.886 195.13 547.331 194.97 538.711 191.241L538.738 191.228Z" data-darkreader-inline-fill="" style="--darkreader-inline-fill: var(--darkreader-background-009f5c, #007f4a);"/>
<path fill="#03332F" d="M247.197 192.579V72.3008H329.534V92.8015H271.934V123.806H323.774V144.133H271.934V192.592H247.197V192.579Z" data-darkreader-inline-fill="" style="--darkreader-inline-fill: var(--darkreader-background-03332f, #022926);"/>
<path fill="#03332F" d="M331.579 168.175C331.579 153.26 341.068 144.453 356.998 142.261L389.192 137.691V132.613C389.192 125.329 384.448 120.919 374.117 120.919C364.455 120.919 358.361 124.647 357.519 132.105H335.161C336.51 113.475 351.933 102.971 374.639 102.971C397.344 102.971 412.072 114.664 412.072 132.96V192.591H390.221L389.379 179.2C384.127 188.689 373.957 194.783 361.087 194.783C343.473 194.783 331.606 183.597 331.606 168.188L331.579 168.175ZM389.179 160.557V153.608L365.457 156.828C358.174 157.844 354.445 160.891 354.445 166.999C354.445 173.106 359.524 176.995 368.17 176.995C379.69 176.995 389.179 170.219 389.179 160.557Z" data-darkreader-inline-fill="" style="--darkreader-inline-fill: var(--darkreader-background-03332f, #022926);"/>
<path fill="#03332F" d="M448.65 192.577L416.803 105.162H441.874L462.201 168.856L482.528 105.162H506.583L474.897 192.577H448.636H448.65Z" data-darkreader-inline-fill="" style="--darkreader-inline-fill: var(--darkreader-background-03332f, #022926);"/>
<path fill="#03332F" d="M612.308 192.577V105.162H635.174L635.682 122.108C639.918 111.604 648.551 103.639 661.434 103.639C663.132 103.639 665.337 103.812 666.687 104.147V126.852C664.989 126.679 662.276 126.518 660.085 126.518C644.328 126.518 636.029 134.991 636.029 150.4V192.591H612.308V192.577Z" data-darkreader-inline-fill="" style="--darkreader-inline-fill: var(--darkreader-background-03332f, #022926);"/>
<path fill="#03332F" d="M672.46 149.88V147.675C672.46 121.081 689.914 102.945 717.524 102.945C747.34 102.945 762.08 123.954 760.557 154.451H696.689C697.879 169.365 704.828 176.649 717.524 176.649C728.202 176.649 734.296 171.571 736.501 164.795H760.049C755.812 183.264 740.404 194.784 717.524 194.784C689.406 194.784 672.46 176.823 672.46 149.894V149.88ZM736.327 138.868C735.312 127.856 729.218 121.081 717.35 121.081C705.483 121.081 699.055 126.841 697.023 138.868H736.327Z" data-darkreader-inline-fill="" style="--darkreader-inline-fill: var(--darkreader-background-03332f, #022926);"/>
<path fill="#03332F" d="M771.569 149.88V147.675C771.569 121.922 785.628 102.945 809.002 102.945C821.872 102.945 831.026 109.039 836.105 116.83V67.1953H859.987V192.565H837.962L837.281 178.84C833.218 186.631 823.903 194.77 809.67 194.77C786.123 194.77 771.556 175.967 771.556 149.88H771.569ZM836.96 149.88V147.675C836.96 130.568 829.85 121.08 816.299 121.08C802.748 121.08 795.625 130.568 795.625 147.675V149.88C795.625 166.986 802.908 176.474 816.299 176.474C829.69 176.474 836.96 166.986 836.96 149.88Z" data-darkreader-inline-fill="" style="--darkreader-inline-fill: var(--darkreader-background-03332f, #022926);"/>
</g>
<defs>
<clipPath id="clip0_502_138">
<rect fill="white" height="249.269" width="860" data-darkreader-inline-fill="" style="--darkreader-inline-fill: var(--darkreader-text-ffffff, #e8e6e3);"/>
</clipPath>
</defs>
</svg>